<?xml version="1.0" standalone="no"?>
<!DOCTYPE svg PUBLIC "-//W3C//DTD SVG 20010904//EN"
 "http://www.w3.org/TR/2001/REC-SVG-20010904/DTD/svg10.dtd">
<svg version="1.0" xmlns="http://www.w3.org/2000/svg"
 width="700.000000pt" height="700.000000pt" viewBox="0 0 700.000000 700.000000"
 preserveAspectRatio="xMidYMid meet">
<metadata>
Created by potrace 1.11, written by Peter Selinger 2001-2013
</metadata>
<g transform="translate(0.000000,700.000000) scale(0.100000,-0.100000)"
fill="#000000" stroke="none">
<path d="M1265 6205 c-280 -30 -520 -54 -532 -54 l-23 -1 0 -2085 0 -2085 555
0 555 0 0 1001 0 1001 44 62 c107 149 219 229 326 230 73 1 105 -20 140 -90
l25 -49 3 -1077 2 -1078 556 0 555 0 -4 1203 c-3 1090 -5 1208 -20 1271 -46
186 -110 308 -217 415 -145 146 -321 211 -570 211 -310 0 -542 -94 -777 -314
l-63 -58 0 776 0 776 -22 -1 c-13 -1 -252 -25 -533 -54z"/>
<path d="M5070 5066 c-246 -39 -433 -112 -636 -248 -297 -198 -516 -523 -605
-894 -67 -284 -67 -667 1 -933 89 -350 261 -620 520 -815 507 -383 1336 -410
1888 -63 85 54 172 119 172 129 0 15 -463 668 -473 668 -5 0 -42 -19 -81 -43
-185 -111 -297 -143 -470 -135 -205 10 -332 95 -395 264 -71 188 -81 612 -21
871 62 265 232 396 495 380 153 -10 286 -58 423 -153 35 -24 66 -44 70 -44 4
0 91 118 194 263 103 144 205 287 227 318 l40 57 -74 58 c-199 157 -434 262
-695 311 -115 21 -465 27 -580 9z"/>
<path d="M720 1035 l0 -295 2795 0 2795 0 0 295 0 295 -2795 0 -2795 0 0 -295z"/>
</g>
</svg>
